<svg xmlns="http://www.w3.org/2000/svg" width="960" height="160" viewBox="0 0 960 160" role="img"><title>Have a product in mind? Let&#x27;s talk on LinkedIn.</title><defs>
<linearGradient id="sky" x2="1" y2="0.5"><stop stop-color="#091226"/><stop offset="0.55" stop-color="#19204b"/><stop offset="1" stop-color="#301548"/></linearGradient>
<radialGradient id="glow"><stop stop-color="#638ee1" stop-opacity="0.36"/><stop offset="1" stop-color="#638ee1" stop-opacity="0"/></radialGradient>
<clipPath id="bounds"><rect x="1" y="1" width="958" height="158" rx="16"/></clipPath>
</defs><g clip-path="url(#bounds)"><rect width="960" height="160" fill="url(#sky)"/>
<ellipse cx="144.0" cy="179.20000000000002" rx="288.0" ry="128.0" fill="url(#glow)"/><circle cx="622" cy="39" r="0.8" fill="#d5dcf7" opacity="0.35"/><circle cx="802" cy="48" r="0.8" fill="#d5dcf7" opacity="0.35"/><circle cx="792" cy="8" r="0.8" fill="#d5dcf7" opacity="0.7"/><circle cx="506" cy="40" r="0.8" fill="#d5dcf7" opacity="0.35"/><circle cx="647" cy="24" r="1" fill="#d5dcf7" opacity="0.7"/><circle cx="613" cy="49" r="0.6" fill="#d5dcf7" opacity="0.35"/><circle cx="175" cy="30" r="1" fill="#d5dcf7" opacity="0.7"/><circle cx="61" cy="35" r="0.6" fill="#d5dcf7" opacity="0.7"/><circle cx="311" cy="31" r="0.8" fill="#d5dcf7" opacity="0.35"/><circle cx="943" cy="39" r="0.8" fill="#d5dcf7" opacity="0.35"/><circle cx="941" cy="77" r="0.8" fill="#d5dcf7" opacity="0.7"/><circle cx="131" cy="27" r="0.8" fill="#d5dcf7" opacity="0.35"/><circle cx="558" cy="27" r="1" fill="#d5dcf7" opacity="0.5"/><circle cx="291" cy="37" r="0.8" fill="#d5dcf7" opacity="0.35"/><circle cx="734" cy="61" r="0.8" fill="#d5dcf7" opacity="0.35"/><circle cx="934" cy="47" r="0.6" fill="#d5dcf7" opacity="0.5"/><circle cx="120" cy="11" r="0.6" fill="#d5dcf7" opacity="0.5"/><circle cx="836" cy="91" r="0.8" fill="#d5dcf7" opacity="0.5"/><circle cx="55" cy="39" r="0.8" fill="#d5dcf7" opacity="0.5"/><circle cx="532" cy="25" r="0.6" fill="#d5dcf7" opacity="0.35"/><circle cx="397" cy="21" r="1" fill="#d5dcf7" opacity="0.35"/><circle cx="911" cy="16" r="0.8" fill="#d5dcf7" opacity="0.7"/><circle cx="234" cy="22" r="1" fill="#d5dcf7" opacity="0.7"/><circle cx="925" cy="9" r="1" fill="#d5dcf7" opacity="0.7"/><circle cx="913" cy="25" r="0.8" fill="#d5dcf7" opacity="0.5"/><circle cx="467" cy="49" r="0.8" fill="#d5dcf7" opacity="0.7"/><circle cx="486" cy="46" r="1" fill="#d5dcf7" opacity="0.35"/><circle cx="181" cy="13" r="1" fill="#d5dcf7" opacity="0.5"/><circle cx="674" cy="107" r="0.8" fill="#d5dcf7" opacity="0.7"/><circle cx="912" cy="33" r="1" fill="#d5dcf7" opacity="0.7"/><path d="M793.8 41.6h6M796.8 38.6v6" stroke="#a8b8e6" stroke-width="0.8" opacity="0.6"/><path d="M880.2 110.39999999999999h6M883.2 107.39999999999999v6" stroke="#a8b8e6" stroke-width="0.8" opacity="0.6"/></g><rect x="0.5" y="0.5" width="959" height="159" rx="16" fill="none" stroke="#354064"/><text x="30" y="34" font-family="Verdana,sans-serif" font-size="12" fill="#b9c7e9" letter-spacing="2">LET&#x27;S BUILD SOMETHING USEFUL</text><text x="28" y="80" font-family="Georgia,serif" font-size="32" fill="#f0edff" >Have a product in mind?</text><text x="30" y="123" font-family="Verdana,sans-serif" font-size="19" fill="#c0d4ff" >Let&#x27;s talk on LinkedIn →</text></svg>
