<svg xmlns="http://www.w3.org/2000/svg" width="960" height="100" viewBox="0 0 960 100" role="img"><title>AWS certified</title><defs>
<linearGradient id="sky" x2="1" y2="0.5"><stop stop-color="#091226"/><stop offset="0.55" stop-color="#19204b"/><stop offset="1" stop-color="#301548"/></linearGradient>
<radialGradient id="glow"><stop stop-color="#638ee1" stop-opacity="0.36"/><stop offset="1" stop-color="#638ee1" stop-opacity="0"/></radialGradient>
<clipPath id="bounds"><rect x="1" y="1" width="958" height="98" rx="16"/></clipPath>
</defs><g clip-path="url(#bounds)"><rect width="960" height="100" fill="url(#sky)"/>
<ellipse cx="144.0" cy="112.00000000000001" rx="288.0" ry="80.0" fill="url(#glow)"/><circle cx="29" cy="12" r="1" fill="#d5dcf7" opacity="0.35"/><circle cx="156" cy="19" r="1" fill="#d5dcf7" opacity="0.35"/><circle cx="772" cy="45" r="0.6" fill="#d5dcf7" opacity="0.5"/><circle cx="742" cy="74" r="0.6" fill="#d5dcf7" opacity="0.5"/><circle cx="735" cy="26" r="1" fill="#d5dcf7" opacity="0.5"/><circle cx="234" cy="23" r="1" fill="#d5dcf7" opacity="0.35"/><circle cx="810" cy="12" r="0.8" fill="#d5dcf7" opacity="0.35"/><circle cx="678" cy="56" r="1" fill="#d5dcf7" opacity="0.5"/><circle cx="322" cy="22" r="0.6" fill="#d5dcf7" opacity="0.35"/><circle cx="798" cy="87" r="1" fill="#d5dcf7" opacity="0.7"/><circle cx="379" cy="12" r="1" fill="#d5dcf7" opacity="0.7"/><circle cx="880" cy="72" r="1" fill="#d5dcf7" opacity="0.7"/><circle cx="905" cy="27" r="1" fill="#d5dcf7" opacity="0.7"/><circle cx="689" cy="88" r="0.6" fill="#d5dcf7" opacity="0.35"/><circle cx="878" cy="24" r="1" fill="#d5dcf7" opacity="0.7"/><circle cx="24" cy="27" r="0.6" fill="#d5dcf7" opacity="0.5"/><circle cx="856" cy="14" r="0.6" fill="#d5dcf7" opacity="0.7"/><circle cx="459" cy="16" r="0.8" fill="#d5dcf7" opacity="0.5"/><circle cx="109" cy="32" r="1" fill="#d5dcf7" opacity="0.7"/><circle cx="142" cy="32" r="0.8" fill="#d5dcf7" opacity="0.35"/><circle cx="783" cy="59" r="0.8" fill="#d5dcf7" opacity="0.7"/><circle cx="281" cy="24" r="0.8" fill="#d5dcf7" opacity="0.5"/><circle cx="758" cy="31" r="1" fill="#d5dcf7" opacity="0.7"/><circle cx="782" cy="21" r="1" fill="#d5dcf7" opacity="0.5"/><circle cx="665" cy="80" r="1" fill="#d5dcf7" opacity="0.7"/><circle cx="656" cy="43" r="0.8" fill="#d5dcf7" opacity="0.7"/><circle cx="791" cy="64" r="0.6" fill="#d5dcf7" opacity="0.5"/><circle cx="246" cy="27" r="1" fill="#d5dcf7" opacity="0.5"/><circle cx="627" cy="45" r="1" fill="#d5dcf7" opacity="0.5"/><circle cx="750" cy="89" r="0.8" fill="#d5dcf7" opacity="0.35"/><circle cx="707" cy="57" r="0.6" fill="#d5dcf7" opacity="0.35"/><path d="M793.8 26.0h6M796.8 23.0v6" stroke="#a8b8e6" stroke-width="0.8" opacity="0.6"/><path d="M880.2 69.0h6M883.2 66.0v6" stroke="#a8b8e6" stroke-width="0.8" opacity="0.6"/></g><rect x="0.5" y="0.5" width="959" height="99" rx="16" fill="none" stroke="#354064"/><text x="30" y="30" font-family="Verdana,sans-serif" font-size="12" fill="#a7b5dc" letter-spacing="2">CLOUD CREDENTIALS</text><text x="28" y="70" font-family="Georgia,serif" font-size="30" fill="#f0edff" >AWS certified</text></svg>
